<?xml version="1.0" encoding="UTF-8" standalone="no"?>
<svg width="11px" height="12px" viewBox="0 0 11 12" version="1.1" xmlns="http://www.w3.org/2000/svg" xmlns:xlink="http://www.w3.org/1999/xlink">
    <!-- Generator: Sketch 3.7.2 (28276) - http://www.bohemiancoding.com/sketch -->
    <title>icon phone</title>
    <desc>Created with Sketch.</desc>
    <defs></defs>
    <g id="Symbols" stroke="none" stroke-width="1" fill="none" fill-rule="evenodd">
        <g id="Footer" transform="translate(-495.000000, -81.000000)" fill="#4D617E">
            <g id="Footer-Copy-4">
                <g>
                    <g id="Contact-info" transform="translate(494.000000, 44.000000)">
                        <path d="M9.04213998,43.7573218 C8.86127413,43.6453941 8.5905563,43.6763776 8.43718825,43.8270346 L7.23929088,45.0245446 C7.08592284,45.1752016 6.84231551,45.1752016 6.69165852,45.0245446 L3.99997189,42.3316961 C3.8493149,42.1810391 3.8493149,41.9347208 3.99997189,41.7840638 L5.12815652,40.6562664 C5.27881351,40.5056095 5.30127651,40.2399264 5.17889191,40.0660318 L3.12623879,37.1562992 C3.00501607,36.9824047 2.76760544,36.9483229 2.60106943,37.0807771 C2.60106943,37.0807771 1,38.3514856 1,39.5187868 C1,44.2960464 4.8729304,48.1685895 9.64980276,48.1685895 C10.8178786,48.1685895 11.9534218,46.0256972 11.9534218,46.0256972 C12.0533434,45.83786 11.9871163,45.5911544 11.8062504,45.4792267 L9.04213998,43.7573218 L9.04213998,43.7573218 Z" id="icon-phone"></path>
                    </g>
                </g>
            </g>
        </g>
    </g>
</svg>