<?xml version="1.0" encoding="UTF-8" standalone="no"?>
<svg width="15px" height="11px" viewBox="0 0 15 11" version="1.1" xmlns="http://www.w3.org/2000/svg" xmlns:xlink="http://www.w3.org/1999/xlink">
    <!-- Generator: Sketch 3.7.2 (28276) - http://www.bohemiancoding.com/sketch -->
    <title>icon email</title>
    <desc>Created with Sketch.</desc>
    <defs></defs>
    <g id="Symbols" stroke="none" stroke-width="1" fill="none" fill-rule="evenodd">
        <g id="Footer" transform="translate(-494.000000, -104.000000)" fill="#4D617E">
            <g id="Footer-Copy-4">
                <g>
                    <g id="Contact-info" transform="translate(494.000000, 44.000000)">
                        <g id="icon-email" transform="translate(0.000000, 60.000000)">
                            <path d="M7.69264706,7.42557173 C7.59323529,7.52085655 7.45882353,7.57429522 7.31852941,7.57429522 C7.17823529,7.57429522 7.04382353,7.52085655 6.94441176,7.42557173 L0.0517647059,0.798893971 C0.0311764706,0.880607069 -3.55271368e-15,0.958927235 -3.55271368e-15,1.04714345 L-3.55271368e-15,9.18819958 C-3.55271368e-15,9.75029522 0.473529412,10.2057963 1.05852941,10.2057963 L13.7605882,10.2057963 C14.3447059,10.2057963 14.8194118,9.75057796 14.8194118,9.18819958 L14.8194118,1.04714345 C14.8194118,0.90775052 14.7894118,0.774012474 14.7361765,0.653846154 L7.69264706,7.42557173 L7.69264706,7.42557173 Z" id="Shape"></path>
                            <path d="M7.20034759,6.31594179 L13.7485829,0.0206403326 C13.7112299,0.016964657 13.6803476,3.55271368e-15 13.6424064,3.55271368e-15 L0.940347594,3.55271368e-15 C0.849465241,3.55271368e-15 0.766524064,0.0291226611 0.681818182,0.0494802495 L7.20034759,6.31594179 L7.20034759,6.31594179 Z" id="Shape"></path>
                        </g>
                    </g>
                </g>
            </g>
        </g>
    </g>
</svg>