<?xml version="1.0" encoding="UTF-8" standalone="no"?>
<svg width="13px" height="12px" viewBox="0 0 13 12" version="1.1" xmlns="http://www.w3.org/2000/svg" xmlns:xlink="http://www.w3.org/1999/xlink">
    <!-- Generator: Sketch 3.7.2 (28276) - http://www.bohemiancoding.com/sketch -->
    <title>LinkedIn</title>
    <desc>Created with Sketch.</desc>
    <defs></defs>
    <g id="Symbols" stroke="none" stroke-width="1" fill="none" fill-rule="evenodd">
        <g id="Main-Nav-default" transform="translate(-1212.000000, -5.000000)" fill="#2B2B2B">
            <g id="Main-Nav">
                <g id="Nav">
                    <g id="Social-icons-Copy" transform="translate(1166.000000, 5.000000)">
                        <path d="M58.3529412,7.29430242 L58.3529412,11.897426 L55.7053059,11.897426 L55.7053059,7.60259189 C55.7053059,6.52369455 55.322354,5.78738931 54.3639978,5.78738931 C53.6324144,5.78738931 53.1970486,6.28360508 53.0055152,6.76361033 C52.9356683,6.93521033 52.9176896,7.17405506 52.9176896,7.41426031 L52.9176896,11.897426 L50.269164,11.897426 C50.269164,11.897426 50.3048342,4.62338671 50.269164,3.86974199 L52.9174311,3.86974199 L52.9174311,5.00763407 C52.9120605,5.01614459 52.9050815,5.02532091 52.9000268,5.03357091 L52.9174311,5.03357091 L52.9174311,5.00763407 C53.2692793,4.46142619 53.8976432,3.68114989 55.3041168,3.68114989 C57.0466427,3.68112095 58.3529412,4.82850776 58.3529412,7.29430242 L58.3529412,7.29430242 Z M47.4986934,0 C46.5926363,0 46,0.599007878 46,1.38672364 C46,2.15727362 46.5754905,2.77446045 47.4635402,2.77446045 L47.4812317,2.77446045 C48.4048368,2.77446045 48.9792359,2.15738941 48.9792359,1.38672364 C48.9618316,0.599007878 48.4048368,0 47.4986934,0 L47.4986934,0 Z M46.1572992,11.897426 L48.8048196,11.897426 L48.8048196,3.86974199 L46.1572992,3.86974199 L46.1572992,11.897426 L46.1572992,11.897426 Z" id="LinkedIn"></path>
                    </g>
                </g>
            </g>
        </g>
    </g>
</svg>