<?xml version="1.0" encoding="UTF-8" standalone="no"?>
<svg width="14px" height="12px" viewBox="0 0 14 12" version="1.1" xmlns="http://www.w3.org/2000/svg" xmlns:xlink="http://www.w3.org/1999/xlink">
    <!-- Generator: Sketch 3.7.2 (28276) - http://www.bohemiancoding.com/sketch -->
    <title>Shape</title>
    <desc>Created with Sketch.</desc>
    <defs></defs>
    <g id="Symbols" stroke="none" stroke-width="1" fill="none" fill-rule="evenodd">
        <g id="Main-Nav-default" transform="translate(-1186.000000, -6.000000)" fill="#2B2B2B">
            <g id="Main-Nav">
                <g id="Nav">
                    <g id="Social-icons-Copy" transform="translate(1166.000000, 5.000000)">
                        <path d="M24.5303398,12.0900002 C29.5448894,11.9643926 32.2833282,7.77005195 32.2833282,4.12527131 C32.2833282,4.00377141 32.2807284,3.88292009 32.2753122,3.76293354 C32.8234333,3.36816699 33.2994104,2.87481688 33.6755124,2.31336629 C33.1722376,2.53604403 32.6314826,2.68651367 32.0638632,2.75418175 C32.6431816,2.40762599 33.0881779,1.85893074 33.2976772,1.20495 C32.7554056,1.5257789 32.1548556,1.75883385 31.5157421,1.88444141 C31.0035847,1.34028618 30.2743453,1 29.4673291,1 C27.9174247,1 26.6608626,2.2539135 26.6608626,3.80055094 C26.6608626,4.01998581 26.6857772,4.2335835 26.7336565,4.43853348 C24.4012172,4.32178982 22.3335226,3.20688777 20.9493544,1.51280738 C20.7077911,1.92638264 20.5693526,2.40740981 20.5693526,2.92064958 C20.5693526,3.89200016 21.0648281,4.74920137 21.8178988,5.25141534 C21.3577371,5.23693048 20.9250897,5.11089055 20.5466045,4.90118434 C20.5463879,4.9128587 20.5463879,4.92474927 20.5463879,4.93642363 C20.5463879,6.29324451 21.5137241,7.42500954 22.797584,7.68227799 C22.5620869,7.74627083 22.3142408,7.78064535 22.0581621,7.78064535 C21.8774772,7.78064535 21.7015585,7.76291761 21.5301894,7.73027263 C21.887443,8.84279657 22.9236735,9.65243554 24.1518546,9.6751357 C23.1912345,10.4261866 21.9812519,10.8739203 20.6666279,10.8739203 C20.4410966,10.8739203 20.2185985,10.8607325 20,10.8350057 L20,10.836519 C21.1982837,11.6024872 22.6136493,12.0590847 24.1347394,12.0900002 L24.5303398,12.0900002" id="Shape"></path>
                    </g>
                </g>
            </g>
        </g>
    </g>
</svg>